<svg version="1.1" id="Layer_1" xmlns="http://www.w3.org/2000/svg" xmlns:xlink="http://www.w3.org/1999/xlink" x="0px" y="0px" viewBox="0 0 500 500" style="width: 166px;" xml:space="preserve" data-imageid="factory-worker-49" imageName="Factory Worker" class="illustrations_image">
<style type="text/css">
	.st0_factory-worker-49{fill:#68E1FD;}
	.st1_factory-worker-49{fill:#093F68;}
	.st2_factory-worker-49{fill:#FFC9B0;}
	.st3_factory-worker-49{fill:#FFFFFF;}
	.st4_factory-worker-49{fill:#F56132;}
	.st5_factory-worker-49{fill:#FFBC0E;}
</style>
<g id="character_factory-worker-49">
	<path class="st0_factory-worker-49 targetColor" d="M263.9,276.2h72.7c33.5,0,60.7,27.2,60.7,60.7v73.7l0,0H203.2l0,0v-73.7C203.2,303.3,230.4,276.2,263.9,276.2z&#10;&#9;&#9;" style="fill: rgb(104, 225, 253);"/>
	<path class="st1_factory-worker-49" d="M397.4,412.4H203.2c-1,0-1.8-0.8-1.8-1.8v-72.5c0-35.2,28.6-63.7,63.7-63.7h70.3c35.2,0,63.7,28.6,63.7,63.7&#10;&#9;&#9;v72.5C399.2,411.6,398.4,412.4,397.4,412.4L397.4,412.4z M205,408.8h190.5v-70.7c0-33.2-26.9-60.1-60.1-60.1h-70.3&#10;&#9;&#9;c-33.2,0-60.1,26.9-60.1,60.1L205,408.8z"/>
	<path class="st1_factory-worker-49" d="M241.1,412.4c-1,0-1.8-0.8-1.8-1.8v-95.5c0.1-1,1-1.8,2-1.7c0.9,0.1,1.6,0.8,1.7,1.7v95.5&#10;&#9;&#9;C242.9,411.6,242.1,412.4,241.1,412.4z"/>
	<path class="st1_factory-worker-49" d="M359.5,412.4c-1,0-1.8-0.8-1.8-1.8l0,0v-95.5c0-1,0.8-1.8,1.8-1.8s1.8,0.8,1.8,1.8v95.5&#10;&#9;&#9;C361.3,411.6,360.5,412.4,359.5,412.4z"/>
	<rect x="285.9" y="247.4" class="st2_factory-worker-49" width="28.7" height="28.7"/>
	<path class="st1_factory-worker-49" d="M314.7,278h-28.7c-1,0-1.8-0.8-1.8-1.8l0,0v-28.8c0-1,0.8-1.8,1.8-1.8l0,0h28.7c1,0,1.8,0.8,1.8,1.8v28.7&#10;&#9;&#9;C316.5,277.2,315.7,278,314.7,278C314.7,278,314.7,278,314.7,278z M287.8,274.4h25.1v-25.1h-25.1V274.4z"/>
	<path class="st1_factory-worker-49" d="M368.5,177.4c3.9-5.1,5-13,6.1-19c1.9-9.6,3.7-19.3,4-29.2s-1.2-19.8-5.6-28.6c8.7-6.8,10.3-19.3,3.5-28&#10;&#9;&#9;c-0.5-0.7-1.1-1.3-1.7-1.9c2.4,2.4-6.8,9.9-8.4,10.7c-5.3,2.4-11.6,2.2-17.2,0.8c-10-2.4-18.8-8.2-28.4-12.1&#10;&#9;&#9;c-16.1-6.4-33.6-8.3-50.7-5.3c-8.2,1.5-16.1,4.7-23.1,9.4c-3.1,1.9-5.7,2.9-7.6,6.1c-1.2,2-5.6,12.8-3.6,14.9&#10;&#9;&#9;c-7.1-7.2-14.9,0.1-15.4,8.1c-0.5,8.7-0.2,17.5,0.8,26.2c0.7,5.7,1.9,11.3,3.1,16.9l2.7,13.2c1.4,6.5,1.9,16,9.1,18.1&#10;&#9;&#9;s15.1,1,22.5,1.1l38.7,0.6c16.3,0,32.7,0.5,49,0.8c6.1,0.1,17.3,2.6,21.4-2.1C368.1,177.8,368.3,177.6,368.5,177.4z"/>
	<path class="st1_factory-worker-49" d="M358.5,182.7c-2.4,0-4.9-0.2-7.2-0.4c-1.8-0.2-3.4-0.3-4.8-0.3c-5.5-0.1-10.9-0.2-16.4-0.3&#10;&#9;&#9;c-10.7-0.2-21.8-0.4-32.6-0.4l-38.7-0.6c-2,0-3.9,0-5.9,0.1c-5.6,0.1-11.4,0.3-17-1.3c-7.3-2.1-8.7-10.1-9.9-16.6&#10;&#9;&#9;c-0.2-1-0.4-2-0.5-2.9l-2.7-13.2c-1.1-5.5-2.3-11.3-3.1-17c-1.1-8.8-1.4-17.7-0.8-26.5c0.3-5.5,3.6-10.5,7.9-12.2&#10;&#9;&#9;c2.3-0.9,4.9-0.8,7.1,0.3c0.8-5.2,4.2-11.9,4.2-12c1.8-3,4-4.3,6.4-5.7c0.6-0.3,1.2-0.7,1.8-1.1c8.2-5.2,15.6-8.2,23.7-9.6&#10;&#9;&#9;c17.4-3,35.3-1.1,51.7,5.4c3.5,1.4,7,3.1,10.3,4.8c6,3,11.6,5.7,17.8,7.3s11.8,1.2,16-0.7c1.5-0.7,7.5-6,7.8-7.9&#10;&#9;&#9;c-0.6-0.8-0.5-1.9,0.3-2.6c0.7-0.6,1.7-0.5,2.4,0.1c8.5,8.5,8.6,22.3,0.1,30.8c-0.3,0.3-0.6,0.6-0.9,0.9c3.7,8,5.4,17.4,5.1,28.2&#10;&#9;&#9;c-0.3,10-2.1,19.9-4,29.4l-0.4,2c-1,5.7-2.4,12.9-6.1,17.8l0,0c-0.2,0.2-0.4,0.5-0.6,0.7C366.9,182,362.8,182.7,358.5,182.7z&#10;&#9;&#9; M297.5,177.6c10.9,0,22,0.2,32.7,0.4c5.5,0.1,10.9,0.2,16.4,0.3c1.5,0,3.2,0.2,5,0.3c5.5,0.5,12.4,1.1,14.9-1.8&#10;&#9;&#9;c0.2-0.2,0.3-0.4,0.5-0.6l0,0c3.2-4.2,4.4-10.6,5.4-16.2l0.4-2c1.8-9.4,3.7-19.1,3.9-28.9c0.3-10.8-1.5-20.1-5.4-27.8&#10;&#9;&#9;c-0.4-0.8-0.2-1.7,0.5-2.2c7.5-5.8,9.2-16.3,4-24.2c-2.4,3.2-5.3,5.9-8.7,8.1c-6.3,2.9-13.5,2.1-18.4,0.9&#10;&#9;&#9;c-6.6-1.6-12.7-4.6-18.6-7.5c-3.3-1.6-6.7-3.3-10-4.7c-15.8-6.3-33-8.1-49.7-5.2c-7.7,1.4-14.6,4.2-22.4,9.1&#10;&#9;&#9;c-0.6,0.4-1.3,0.8-1.9,1.2c-2.1,1.3-3.9,2.2-5.1,4.4c-1.5,2.5-4.5,11.2-3.8,12.8c0.7,0.7,0.7,1.8,0,2.5c0,0,0,0,0,0&#10;&#9;&#9;c-0.7,0.7-1.9,0.7-2.6-0.1l0,0c-2.2-2.2-4.5-2.9-6.6-2.1c-3,1.1-5.4,5-5.6,9c-0.5,8.6-0.2,17.3,0.8,25.9c0.7,5.6,1.9,11.3,3,16.8&#10;&#9;&#9;l2.8,13.2c0.2,0.9,0.4,1.9,0.6,3c1,5.8,2.2,12.3,7.3,13.7s10.6,1.3,15.9,1.2c2,0,4.1-0.1,6.1-0.1L297.5,177.6L297.5,177.6z"/>
	<ellipse class="st2_factory-worker-49" cx="241.1" cy="193.4" rx="20.3" ry="27.9"/>
	<path class="st1_factory-worker-49" d="M241.1,223.1c-12.2,0-22.1-13.3-22.1-29.7s9.9-29.7,22.1-29.7s22.1,13.3,22.1,29.7S253.3,223.1,241.1,223.1z&#10;&#9;&#9; M241.1,167.3c-10.2,0-18.5,11.7-18.5,26s8.3,26,18.5,26s18.5-11.7,18.5-26S251.3,167.3,241.1,167.3z"/>
	<ellipse class="st2_factory-worker-49" cx="359.5" cy="193.4" rx="20.3" ry="27.9"/>
	<path class="st1_factory-worker-49" d="M359.5,223.1c-12.2,0-22.1-13.3-22.1-29.7s9.9-29.7,22.1-29.7s22.1,13.3,22.1,29.7S371.7,223.1,359.5,223.1z&#10;&#9;&#9; M359.5,167.3c-10.2,0-18.5,11.7-18.5,26s8.3,26,18.5,26s18.5-11.7,18.5-26S369.7,167.3,359.5,167.3z"/>
	<path class="st2_factory-worker-49" d="M340.2,117.8c12.8,0,23.2,10.4,23.2,23.2c0,0,0,0,0,0v62.6c0,33.3-27,60.3-60.3,60.3h-5.5&#10;&#9;&#9;c-33.3,0-60.3-27-60.3-60.3c0,0,0,0,0,0V141c0-12.8,10.4-23.1,23.1-23.2L340.2,117.8z"/>
	<path class="st1_factory-worker-49" d="M303.1,265.7h-5.5c-34.3,0-62.1-27.8-62.1-62.1V141c0-13.8,11.2-25,25-25l0,0h79.8c13.8,0,25,11.2,25,25l0,0&#10;&#9;&#9;v62.6C365.2,237.9,337.4,265.7,303.1,265.7z M260.4,119.7c-11.8,0-21.3,9.6-21.3,21.3v62.6c0.1,32.2,26.2,58.4,58.5,58.4h5.5&#10;&#9;&#9;c32.3,0,58.4-26.2,58.4-58.5V141c0-11.8-9.6-21.3-21.3-21.3L260.4,119.7z"/>
	<path class="st1_factory-worker-49" d="M279.6,146.4h-27.8c-1.6,0-2.9-1.3-2.9-2.9c0-1.6,1.3-2.9,2.9-2.9c0,0,0,0,0,0h27.8c1.6,0,2.9,1.3,2.9,2.9&#10;&#9;&#9;C282.5,145.1,281.2,146.4,279.6,146.4z"/>
	<path class="st1_factory-worker-49" d="M348.8,146.4H321c-1.6,0-2.9-1.3-2.9-2.9c0-1.6,1.3-2.9,2.9-2.9c0,0,0,0,0,0h27.8c1.6,0,2.9,1.3,2.9,2.9&#10;&#9;&#9;C351.7,145.1,350.4,146.4,348.8,146.4C348.8,146.4,348.8,146.4,348.8,146.4L348.8,146.4z"/>
	<path class="st0_factory-worker-49 targetColor" d="M226.3,144.5h148.8c3.9,0,7,3.1,7,7v4.5c0,3.9-3.1,7-7,7H226.3c-3.9,0-7-3.1-7-7v-4.5&#10;&#9;&#9;C219.3,147.6,222.4,144.5,226.3,144.5z" style="fill: rgb(104, 225, 253);"/>
	<path class="st1_factory-worker-49" d="M375.2,164.9H226.1c-4.8,0-8.7-3.9-8.7-8.7v-4.8c0-4.8,3.9-8.7,8.7-8.7h149.1c4.8,0,8.7,3.9,8.7,8.7v4.8&#10;&#9;&#9;C383.9,161,380,164.9,375.2,164.9z M226.1,146.3c-2.8,0-5.1,2.3-5.1,5.1v4.8c0,2.8,2.3,5.1,5.1,5.1h149.1c2.8,0,5.1-2.3,5.1-5.1&#10;&#9;&#9;v-4.8c0-2.8-2.3-5.1-5.1-5.1H226.1z"/>
	<path class="st0_factory-worker-49 targetColor" d="M332.8,247.4h-64.2c-8.2,0-15.2-5.9-16.6-14l-16.8-100.9c-0.7-9.6,6.6-18,16.2-18.7c0.4,0,0.8,0,1.2,0h96.1&#10;&#9;&#9;c9.6,0,17.5,7.8,17.5,17.5c0,0.4,0,0.8,0,1.2l-16.8,100.9C348,241.5,341,247.4,332.8,247.4z" style="fill: rgb(104, 225, 253);"/>
	<path class="st1_factory-worker-49" d="M332.8,249.2h-64.2c-9.1,0-16.9-6.6-18.4-15.6l-16.8-100.9c-0.8-10.6,7.1-19.9,17.7-20.7c0.5,0,1-0.1,1.5-0.1&#10;&#9;&#9;h96.1c10.7,0,19.3,8.6,19.3,19.3c0,0.5,0,0.9,0,1.4l-16.9,101.1C349.7,242.7,341.9,249.3,332.8,249.2z M252.6,115.6&#10;&#9;&#9;c-8.6,0-15.7,7-15.7,15.7c0,0.4,0,0.7,0,1.1l16.8,100.7c1.2,7.2,7.4,12.5,14.8,12.5h64.2c7.3,0,13.6-5.3,14.8-12.5l16.8-100.9&#10;&#9;&#9;c0.5-8.6-6.1-16.1-14.7-16.6c-0.3,0-0.6,0-0.9,0L252.6,115.6z"/>
	<path class="st3_factory-worker-49" d="M269.3,144.5h62.8c8.3,0,15.1,6.7,15.1,15.1v7.1c0,8.3-6.7,15.1-15.1,15.1h-62.8c-8.3,0-15.1-6.7-15.1-15.1&#10;&#9;&#9;v-7.1C254.2,151.2,261,144.5,269.3,144.5z"/>
	<path class="st1_factory-worker-49" d="M331,183.5h-60.7c-9.9,0-17.9-8-17.9-17.9v-5c0-9.9,8-17.9,17.9-17.9H331c9.9,0,18,8,18,17.9c0,0,0,0.1,0,0.1&#10;&#9;&#9;v5C349,175.5,340.9,183.5,331,183.5C331,183.5,331,183.5,331,183.5z M270.3,146.3c-7.9,0-14.3,6.4-14.3,14.3v5&#10;&#9;&#9;c0,7.9,6.4,14.3,14.3,14.3H331c7.9,0,14.3-6.4,14.3-14.3v-5c0-7.9-6.4-14.3-14.3-14.3H270.3z"/>
	<circle class="st1_factory-worker-49" cx="277.8" cy="167.5" r="5.5"/>
	<circle class="st1_factory-worker-49" cx="323.6" cy="167.5" r="5.5"/>
	<path class="st1_factory-worker-49" d="M283.3,158.6h-16.9c-1.6-0.1-2.8-1.5-2.7-3.1c0.1-1.5,1.3-2.6,2.7-2.7h16.9c1.6-0.1,3,1.1,3.1,2.7&#10;&#9;&#9;s-1.1,3-2.7,3.1C283.5,158.6,283.4,158.6,283.3,158.6L283.3,158.6z"/>
	<path class="st1_factory-worker-49" d="M335,158.6h-16.9c-1.6-0.1-2.8-1.5-2.7-3.1c0.1-1.5,1.3-2.6,2.7-2.7H335c1.6,0.1,2.8,1.5,2.7,3.1&#10;&#9;&#9;C337.6,157.4,336.5,158.6,335,158.6z"/>
	<path class="st1_factory-worker-49" d="M304.2,182.8c-0.9,0-1.6-0.6-1.8-1.4c-1-3.6-2.1-7.1-3.4-10.5c-0.4-0.9,0.1-2,1-2.4c0.9-0.4,2,0.1,2.4,1.1&#10;&#9;&#9;c1.4,3.6,2.6,7.3,3.6,11.1c0.2,1-0.4,2-1.4,2.2c0,0,0,0,0,0C304.5,182.7,304.3,182.8,304.2,182.8z"/>
	<rect x="241.1" y="333.6" class="st3_factory-worker-49" width="118.4" height="77"/>
	<path class="st1_factory-worker-49" d="M359.5,412.4H241.1c-1,0-1.8-0.8-1.8-1.8v-77c0-1,0.8-1.8,1.8-1.8h118.4c1,0,1.8,0.8,1.8,1.8v77&#10;&#9;&#9;C361.3,411.6,360.5,412.4,359.5,412.4z M242.9,408.8h114.8v-73.4H242.9V408.8z"/>
	<path class="st1_factory-worker-49" d="M339.2,412.4h-77.8c-1,0-1.8-0.8-1.8-1.8v-47.8c0-1,0.8-1.8,1.8-1.8l0,0h77.8c1,0,1.8,0.8,1.8,1.8l0,0v47.8&#10;&#9;&#9;C341,411.6,340.2,412.4,339.2,412.4z M263.2,408.8h74.1v-44.1h-74.1L263.2,408.8z"/>
	<path class="st3_factory-worker-49" d="M255.8,272.7h20.6l0,0v65c0,3.1-2.5,5.7-5.7,5.7l0,0h-9.3c-3.1,0-5.7-2.5-5.7-5.7l0,0V272.7L255.8,272.7z"/>
	<path class="st1_factory-worker-49" d="M266.1,345.2c-6.7,0-12.1-5.4-12.1-12.1v-60.4c0-1,0.8-1.8,1.8-1.8h20.6c1,0,1.8,0.8,1.8,1.8l0,0v60.4&#10;&#9;&#9;C278.2,339.8,272.8,345.2,266.1,345.2z M257.6,274.5v58.6c0,4.7,3.8,8.5,8.5,8.5s8.5-3.8,8.5-8.5v-58.6H257.6z"/>
	<path class="st3_factory-worker-49" d="M322.2,272.7h20.6l0,0v65c0,3.1-2.5,5.7-5.7,5.7l0,0h-9.3c-3.1,0-5.7-2.5-5.7-5.7l0,0V272.7L322.2,272.7z"/>
	<path class="st1_factory-worker-49" d="M332.5,345.2c-6.7,0-12.1-5.4-12.1-12.1v-60.4c0-1,0.8-1.8,1.8-1.8l0,0h20.6c1,0,1.8,0.8,1.8,1.8v60.4&#10;&#9;&#9;C344.6,339.8,339.1,345.2,332.5,345.2z M324,274.5v58.6c0,4.7,3.8,8.5,8.5,8.5s8.5-3.8,8.5-8.5v-58.6H324z"/>
</g>
<g id="welding_factory-worker-49">
	<path class="st3_factory-worker-49" d="M194.3,347.5l11-3.4l-21.4-61.2c-4.7-11.3-10.4-12.8-23.9-15.3c-5.8-1-11.6-1.6-17.4-1.6l-0.6,9&#10;&#9;&#9;c0,0,26.2-0.4,30.9,11.3L194.3,347.5z"/>
	<path class="st1_factory-worker-49" d="M194.3,349.4c-0.8,0-1.5-0.5-1.7-1.2L171.2,287c-3.4-8.5-22.2-10.2-29.2-10.1c-0.5,0-1-0.2-1.3-0.6&#10;&#9;&#9;c-0.4-0.4-0.5-0.9-0.5-1.4l0.6-9c0.1-0.9,0.8-1.7,1.8-1.7c6,0,11.9,0.6,17.8,1.6c13.8,2.6,20.1,4.2,25.2,16.4l21.5,61.2&#10;&#9;&#9;c0.2,0.5,0.1,1-0.1,1.4c-0.2,0.4-0.6,0.8-1.1,0.9l-11,3.4C194.7,349.3,194.5,349.4,194.3,349.4z M143.9,273.2&#10;&#9;&#9;c6.4,0.2,26.3,1.6,30.7,12.5l20.9,59.6l7.5-2.4l-20.8-59.4c-4.3-10.2-9.1-11.6-22.5-14.1c-5.1-0.9-10.2-1.4-15.4-1.5L143.9,273.2z"/>
	<path class="st4_factory-worker-49" d="M240.2,428.7l-25.4,7.9l0,0l-25.7-80.1c-1.1-3.6,4.5-10.5,4.5-10.5l10.4-3.9c3.6-1.1,9.4,2.9,10.5,6.5v-2&#10;&#9;&#9;L240.2,428.7L240.2,428.7z"/>
	<path class="st1_factory-worker-49" d="M214.9,438.5c-0.8,0-1.5-0.5-1.7-1.3l-24-76.8c-2.3-7.5,1.8-15.4,9.3-17.8c0,0,0,0,0,0l1.7-0.5&#10;&#9;&#9;c7.5-2.3,15.4,1.8,17.8,9.3c0,0,0,0,0,0l24,76.8c0.1,0.5,0.1,1-0.1,1.4c-0.2,0.4-0.6,0.7-1.1,0.9l-25.3,7.9&#10;&#9;&#9;C215.3,438.4,215.1,438.4,214.9,438.5z M204.4,345.1c-1.1,0-2.1,0.2-3.2,0.5l-1.7,0.5c-5.6,1.7-8.6,7.7-6.9,13.2l23.5,75l21.9-6.9&#10;&#9;&#9;l-23.5-75C213.1,348.1,209,345.1,204.4,345.1L204.4,345.1z"/>
	<path class="st3_factory-worker-49" d="M147.1,279l-7-0.1c-0.9,0-1.6-0.8-1.6-1.7l0.3-14.8c0-0.9,0.8-1.6,1.7-1.6l7,0.1c0.9,0,1.6,0.8,1.6,1.7&#10;&#9;&#9;l-0.3,14.8C148.7,278.3,148,279,147.1,279z"/>
	<path class="st1_factory-worker-49" d="M145.8,280.8h-0.1l-4.4-0.1l0,0c-2.6-0.1-4.7-2.2-4.7-4.9l0.2-12.1c0-1.3,0.6-2.5,1.5-3.4&#10;&#9;&#9;c0.9-0.9,2.1-1.3,3.4-1.3l4.4,0.1c2.6,0.1,4.7,2.2,4.7,4.9l-0.2,12.1c0,1.3-0.6,2.5-1.5,3.4C148.2,280.3,147.1,280.8,145.8,280.8z&#10;&#9;&#9; M141.4,277.1l4.4,0.1c0.3,0,0.6-0.1,0.8-0.3c0.2-0.2,0.3-0.5,0.4-0.8l0.2-12.1c0-0.6-0.5-1.1-1.1-1.2l-4.4-0.1l0,0&#10;&#9;&#9;c-0.6,0-1.1,0.5-1.1,1.1l-0.2,12.1C140.3,276.5,140.8,277.1,141.4,277.1C141.4,277.1,141.4,277.1,141.4,277.1L141.4,277.1z"/>
	<path class="st5_factory-worker-49" d="M138.7,263.8c0,0-3.9-5.5-15.9-5.3c-12.2,0.2-21.3,10.1-21.3,10.1s7.5,8.9,19.4,9.9c12.2,1,17.6-2.6,17.6-2.6&#10;&#9;&#9;L138.7,263.8z"/>
	<path class="st1_factory-worker-49" d="M125,280.5c-1.3,0-2.7,0-4.3-0.2c-12.5-1-20.3-10.1-20.7-10.5c-0.6-0.7-0.6-1.7,0-2.4&#10;&#9;&#9;c0.4-0.4,9.8-10.5,22.7-10.7s17.2,5.8,17.4,6.1c0.2,0.3,0.3,0.7,0.3,1.1l-0.2,12.1c0,0.6-0.3,1.2-0.8,1.5&#10;&#9;&#9;C139.3,277.6,134.7,280.5,125,280.5z M104,268.6c2.4,2.4,8.6,7.3,17,8c8.8,0.7,13.8-1,15.6-1.9l0.2-10.3c-1.1-1.1-5.1-4.3-14.1-4.2&#10;&#9;&#9;C114,260.4,106.8,266.1,104,268.6L104,268.6z"/>
	<path class="st3_factory-worker-49" d="M114.4,268.7c0,0,7.6,5.8,22.2,0.5C136.6,269.2,125.8,260,114.4,268.7z"/>
	<path class="st2_factory-worker-49" d="M219.8,381l-25.6,8c-1.6,0.5-3.3-0.4-3.8-2l-2.1-6.6c-0.5-1.6,0.4-3.3,2-3.8l25.6-8c1.6-0.5,3.3,0.4,3.8,2&#10;&#9;&#9;l2.1,6.6C222.3,378.8,221.4,380.5,219.8,381z"/>
	<path class="st1_factory-worker-49" d="M194.9,390.4c-3.2,0-6-2.1-7-5.1l-0.6-1.9c-1.2-3.8,0.9-7.9,4.8-9.1c0,0,0,0,0,0l20.9-6.6&#10;&#9;&#9;c3.8-1.2,7.9,0.9,9.1,4.8l0.6,1.9c1.2,3.8-0.9,7.9-4.8,9.1l-20.9,6.5l-0.6-1.7l0.6,1.7C196.4,390.2,195.6,390.4,194.9,390.4z&#10;&#9;&#9; M215.2,370.9c-0.4,0-0.7,0.1-1.1,0.2l-20.9,6.5c-1.9,0.6-3,2.7-2.4,4.6l0.6,1.9c0.6,1.9,2.7,3,4.6,2.4l20.9-6.6&#10;&#9;&#9;c1.9-0.6,3-2.7,2.4-4.6l-0.6-1.9C218.2,372,216.8,370.9,215.2,370.9L215.2,370.9z"/>
	<path class="st2_factory-worker-49" d="M223.5,392.9l-25.6,8c-1.6,0.5-3.3-0.4-3.8-2l-2.1-6.6c-0.5-1.6,0.4-3.3,2-3.8l25.6-8c1.6-0.5,3.3,0.4,3.8,2&#10;&#9;&#9;l2.1,6.6C226,390.7,225.1,392.4,223.5,392.9z"/>
	<path class="st1_factory-worker-49" d="M198.6,402.2c-3.2,0-6-2.1-7-5.1l-0.6-1.9c-1.2-3.8,0.9-7.9,4.8-9.1l20.9-6.5c3.8-1.2,7.9,0.9,9.1,4.8l0.6,1.9&#10;&#9;&#9;c1.2,3.8-0.9,7.9-4.8,9.1l-20.9,6.5l0,0C200.1,402.1,199.4,402.3,198.6,402.2z M200.3,400.2L200.3,400.2z M218.9,382.8&#10;&#9;&#9;c-0.4,0-0.7,0.1-1.1,0.2l-20.9,6.5c-1.9,0.6-3,2.7-2.4,4.6c0,0,0,0,0,0l0.6,1.9c0.6,1.9,2.7,3,4.6,2.4l20.9-6.5&#10;&#9;&#9;c1.9-0.6,3-2.7,2.4-4.6l-0.6-1.9C221.9,383.9,220.5,382.8,218.9,382.8L218.9,382.8z"/>
	<path class="st2_factory-worker-49" d="M227.2,404.8l-25.6,8c-1.6,0.5-3.3-0.4-3.8-2l-2.1-6.6c-0.5-1.6,0.4-3.3,2-3.8l25.6-8c1.6-0.5,3.3,0.4,3.8,2&#10;&#9;&#9;l2.1,6.6C229.7,402.6,228.8,404.3,227.2,404.8z"/>
	<path class="st1_factory-worker-49" d="M202.4,414.1c-3.2,0-6-2.1-7-5.1l-0.6-1.9c-1.2-3.8,0.9-7.9,4.8-9.1l20.9-6.5c3.8-1.2,7.9,0.9,9.1,4.8&#10;&#9;&#9;c0,0,0,0,0,0l0.6,1.9c1.2,3.8-0.9,7.9-4.8,9.1l-20.9,6.5C203.8,414,203.1,414.1,202.4,414.1z M222.7,394.7c-0.4,0-0.7,0.1-1.1,0.2&#10;&#9;&#9;l-20.9,6.5c-1.9,0.6-3,2.7-2.4,4.6c0,0,0,0,0,0l0.6,1.9c0.6,1.9,2.7,3,4.6,2.4l20.9-6.5c1.9-0.6,3-2.7,2.4-4.6c0,0,0,0,0,0&#10;&#9;&#9;l-0.6-1.9C225.7,395.7,224.3,394.7,222.7,394.7L222.7,394.7z"/>
	<path class="st2_factory-worker-49" d="M230.9,416.7l-25.6,8c-1.6,0.5-3.3-0.4-3.8-2l-2.1-6.6c-0.5-1.6,0.4-3.3,2-3.8l25.6-8c1.6-0.5,3.3,0.4,3.8,2&#10;&#9;&#9;l2.1,6.6C233.4,414.5,232.5,416.2,230.9,416.7z"/>
	<path class="st1_factory-worker-49" d="M206.1,426c-3.2,0-6-2.1-7-5.1l-0.6-1.9c-1.2-3.8,0.9-7.9,4.8-9.1c0,0,0,0,0,0l20.9-6.5&#10;&#9;&#9;c3.8-1.2,7.9,0.9,9.1,4.8l0.6,1.9c1.2,3.8-0.9,7.9-4.8,9.1l-20.9,6.5C207.5,425.9,206.8,426,206.1,426z M226.4,406.6&#10;&#9;&#9;c-0.4,0-0.7,0.1-1.1,0.2l-20.9,6.5c-1.9,0.6-3,2.7-2.4,4.6l0.6,1.9c0.6,1.9,2.7,3,4.6,2.4l20.9-6.5c1.9-0.6,3-2.6,2.4-4.6&#10;&#9;&#9;c0,0,0,0,0,0l-0.6-1.9C229.4,407.6,228,406.6,226.4,406.6L226.4,406.6z"/>
	<path class="st2_factory-worker-49" d="M243.1,409.4l-5.8,1.8c-1.9,0.6-4-0.5-4.6-2.4l-11.9-38.1c-0.6-1.9,0.5-4,2.4-4.6l5.8-1.8&#10;&#9;&#9;c1.9-0.6,4,0.5,4.6,2.4l11.9,38.1C246.1,406.7,245,408.8,243.1,409.4z"/>
	<path class="st1_factory-worker-49" d="M238.2,412.4c-3.7,0-7-2.4-8.1-6L220,374.1c-1.4-4.5,1.1-9.3,5.6-10.7c4.5-1.4,9.2,1.1,10.6,5.6l10.1,32.3&#10;&#9;&#9;c1.4,4.5-1.1,9.3-5.5,10.7c0,0,0,0,0,0C239.9,412.3,239.1,412.4,238.2,412.4z M228.1,366.7c-2.7,0-4.9,2.2-4.9,4.8&#10;&#9;&#9;c0,0.5,0.1,1,0.2,1.5l10.1,32.3c0.8,2.6,3.5,4,6.1,3.2c0,0,0,0,0,0l0,0c2.6-0.8,4-3.5,3.2-6.1c0,0,0,0,0,0l-10.1-32.3&#10;&#9;&#9;C232.1,368.1,230.2,366.7,228.1,366.7z"/>
</g>
</svg>